<?xml version="1.0" encoding="UTF-8" standalone="no"?>
<svg width="24" height="24" viewBox="0 0 24 24" fill="none" xmlns="http://www.w3.org/2000/svg">
  <!-- Balão de chat grande -->
  <path d="M2 4C2 2.89543 2.89543 2 4 2H20C21.1046 2 22 2.89543 22 4V17C22 18.1046 21.1046 19 20 19H14L12 23L10 19H4C2.89543 19 2 18.1046 2 17V4Z" fill="#1565C0" stroke="#0D47A1" stroke-width="1" stroke-linejoin="round"/>

  <!-- Mosqueteiro de corpo inteiro -->
  <!-- Cabeça -->
  <circle cx="12" cy="7" r="2.5" fill="#FFECB3" stroke="#E65100" stroke-width="0.5"/>

  <!-- Chapéu de mosqueteiro -->
  <path d="M9 5.5C9 5.5 10.5 4.3 12 4.3C13.5 4.3 15 5.5 15 5.5L14.5 6.5H9.5L9 5.5Z" fill="#0D47A1" stroke="#0D47A1" stroke-width="0.5"/>
  <path d="M8.5 6.5H15.5" stroke="#0D47A1" stroke-width="1"/>

  <!-- Pena do chapéu -->
  <path d="M14.5 4.5C15 3.5 16 3 16.5 2.5C16 3.5 15.5 4.5 15 5.5" stroke="#F44336" stroke-width="0.8" stroke-linecap="round"/>

  <!-- Rosto -->
  <path d="M11 6.5L11.3 7" stroke="#5D4037" stroke-width="0.5"/>  <!-- Olho esquerdo -->
  <path d="M13 6.5L12.7 7" stroke="#5D4037" stroke-width="0.5"/>  <!-- Olho direito -->
  <path d="M10.5 7.5C11 8 11.5 8.2 12 8.2C12.5 8.2 13 8 13.5 7.5" stroke="#5D4037" stroke-width="0.5" stroke-linecap="round"/> <!-- Sorriso -->

  <!-- Bigode -->
  <path d="M10 7.2C10.5 7.6 11 7.8 12 7.8C13 7.8 13.5 7.6 14 7.2" stroke="#5D4037" stroke-width="0.4" stroke-linecap="round"/>

  <!-- Corpo -->
  <path d="M10 9.5L9 13.5L10 16.5L12 17L14 16.5L15 13.5L14 9.5L12 9L10 9.5Z" fill="#3949AB" stroke="#283593" stroke-width="0.5"/>

  <!-- Capa -->
  <path d="M9 11C7 13 6.5 15 6.5 16.5M15 11C17 13 17.5 15 17.5 16.5" stroke="#3949AB" stroke-width="1"/>

  <!-- Braços -->
  <path d="M10 11L8 14" stroke="#3949AB" stroke-width="0.8"/>
  <path d="M14 11L16 14" stroke="#3949AB" stroke-width="0.8"/>

  <!-- Pernas -->
  <path d="M11 16.5L10.5 19" stroke="#3949AB" stroke-width="0.8"/>
  <path d="M13 16.5L13.5 19" stroke="#3949AB" stroke-width="0.8"/>

  <!-- Espada na mão -->
  <path d="M8 14L5 16" stroke="#FFC107" stroke-width="0.8" stroke-linecap="round"/>
  <circle cx="8" cy="14" r="0.4" fill="#FFC107"/>

  <!-- Escudo na outra mão -->
  <circle cx="16" cy="14" r="1" fill="#F44336" stroke="#BF360C" stroke-width="0.3"/>
  <path d="M15.5 13.5L16.5 14.5M15.5 14.5L16.5 13.5" stroke="#FFFFFF" stroke-width="0.3"/>

  <!-- Cinto -->
  <path d="M10 13.5H14" stroke="#FFC107" stroke-width="0.5"/>
  <circle cx="12" cy="13.5" r="0.5" fill="#FFC107"/>
</svg>
