<?xml version="1.0" encoding="UTF-8" standalone="no"?>
<svg width="24" height="24" viewBox="0 0 24 24" fill="none" xmlns="http://www.w3.org/2000/svg">
  <!-- Balão de chat -->
  <path d="M2 6C2 4.89543 2.89543 4 4 4H20C21.1046 4 22 4.89543 22 6V16C22 17.1046 21.1046 18 20 18H14L12 22L10 18H4C2.89543 18 2 17.1046 2 16V6Z" fill="#1565C0" stroke="#003180" stroke-width="1.5" stroke-linejoin="round"/>

  <!-- Rosto simplificado -->
  <circle cx="12" cy="10" r="3" fill="#FFE0B2" stroke="#E65100" stroke-width="0.5"/>

  <!-- Chapéu de mosqueteiro -->
  <path d="M7 8.5C7 8.5 9 5 12 5C15 5 17 8.5 17 8.5" stroke="#0D47A1" stroke-width="1.5"/>
  <path d="M7 8.5H17" fill="#0D47A1" stroke="#0D47A1" stroke-width="1.5"/>
  <path d="M9 4.5C9 4.5 10.5 3 12 3C13.5 3 15 4.5 15 4.5L14 7H10L9 4.5Z" fill="#0D47A1" stroke="#0D47A1" stroke-width="0.5"/>

  <!-- Pena do chapéu -->
  <path d="M15 4C16 3 17.5 2 17.5 2C17 3 16.5 4 15.5 5" stroke="#D50000" stroke-width="1.5" stroke-linecap="round"/>
  <path d="M17.5 2C18 2.5 18.5 4 18 6" stroke="#D50000" stroke-width="1.5" stroke-linecap="round"/>

  <!-- Bigode -->
  <path d="M10 11C10 11 10.5 11.5 12 11.5C13.5 11.5 14 11 14 11" stroke="#5D4037" stroke-width="0.75" stroke-linecap="round"/>

  <!-- Espadas cruzadas -->
  <path d="M9 14L15 19" stroke="#FFD600" stroke-width="1.2" stroke-linecap="round"/>
  <path d="M15 14L9 19" stroke="#FFD600" stroke-width="1.2" stroke-linecap="round"/>
  <circle cx="12" cy="16.5" r="0.75" fill="#FFD600"/>
</svg>
